<!DOCTYPE svg PUBLIC "-//W3C//DTD SVG 20010904//EN" "http://www.w3.org/TR/2001/REC-SVG-20010904/DTD/svg10.dtd">
<svg version="1.0" xmlns="http://www.w3.org/2000/svg" width="1080px" height="1080px" viewBox="0 0 10800 10800" preserveAspectRatio="xMidYMid meet">
<g id="layer101" fill="#181818" stroke="none">
<path d="M0 5400 l0 -5400 5400 0 5400 0 0 5400 0 5400 -5400 0 -5400 0 0 -5400z"/>
</g>
<g id="layer102" fill="#212121" stroke="none">
<path d="M3860 10796 c0 -4 325 -333 1210 -1226 349 -352 899 -907 1223 -1232 323 -326 874 -881 1224 -1232 587 -589 636 -642 639 -675 1 -20 0 -28 -3 -19 -12 47 -335 75 -484 44 -85 -18 -139 -46 -199 -102 -91 -85 -132 -203 -133 -384 -1 -207 73 -364 216 -458 22 -15 166 -152 319 -305 251 -250 279 -281 282 -315 3 -20 2 -29 0 -20 -14 47 -336 75 -485 44 -218 -47 -329 -208 -332 -481 0 -55 5 -127 13 -160 8 -33 14 -62 15 -65 1 -6 39 -79 64 -124 10 -17 -54 42 -143 132 l-161 164 -6 -39 c-4 -23 -7 2 -8 67 -3 256 -101 417 -296 489 -80 30 -218 38 -302 18 l-63 -14 0 203 0 204 -85 0 -85 0 0 -690 c0 -683 0 -690 -20 -690 -13 0 -20 7 -20 20 0 13 -45 66 -121 140 -79 79 -118 124 -113 132 10 16 13 33 20 153 23 381 -241 620 -596 539 -80 -18 -171 -72 -213 -127 -120 -158 -142 -435 -50 -625 15 -32 30 -64 34 -72 4 -8 -72 64 -167 160 l-174 175 0 243 0 242 -74 0 c-87 0 -86 1 -86 -107 l0 -76 -40 51 c-51 64 -143 126 -211 142 -76 18 -166 8 -229 -26 -89 -49 -147 -139 -176 -274 -20 -95 -15 -323 9 -387 9 -24 13 -43 9 -43 -4 0 -2 -4 3 -8 9 -6 31 -45 43 -77 2 -5 -153 147 -346 339 -206 205 -354 346 -361 342 -6 -4 -11 -5 -11 -3 0 2 88 62 195 132 l195 127 0 145 0 145 -27 -18 c-16 -9 -281 -186 -590 -392 l-563 -375 0 -104 c0 -102 -8 -124 -30 -83 -6 11 -15 18 -21 15 -5 -4 -9 -2 -9 3 0 12 -60 78 -61 66 0 -5 -4 1 -9 14 -5 12 -16 22 -25 22 -8 0 -15 5 -15 10 0 13 -43 56 -52 53 -4 -2 -10 6 -13 17 -4 11 -12 20 -20 20 -7 0 -15 9 -18 21 -3 12 -10 18 -16 14 -6 -3 -11 -2 -11 4 0 13 -153 166 -162 163 -5 -1 -8 2 -8 7 0 12 -52 66 -61 64 -4 -2 -11 6 -14 17 -4 11 -13 20 -21 20 -8 0 -14 5 -14 10 0 13 -43 56 -52 53 -4 -2 -10 6 -13 17 -4 11 -12 20 -20 20 -7 0 -15 9 -18 21 -3 12 -10 18 -16 14 -6 -3 -11 -2 -11 3 0 13 -87 101 -93 95 -3 -2 -8 5 -12 16 -3 12 -12 21 -20 21 -7 0 -15 9 -18 21 -3 12 -10 18 -16 14 -6 -3 -11 -2 -11 3 0 13 -52 67 -62 65 -4 -2 -8 1 -8 6 0 12 -83 97 -92 94 -4 -2 -10 6 -13 17 -4 11 -12 20 -20 20 -7 0 -15 9 -18 21 -3 12 -10 18 -16 15 -5 -4 -12 3 -16 14 -3 11 -13 20 -21 20 -8 0 -14 5 -14 10 0 13 -43 56 -52 53 -4 -2 -10 6 -13 17 -4 11 -12 20 -20 20 -7 0 -15 9 -18 21 -3 12 -10 18 -16 15 -5 -4 -12 3 -16 14 -4 11 -10 18 -15 15 -5 -3 -11 4 -15 15 -3 11 -10 20 -14 20 -3 0 -15 14 -25 30 -9 17 -22 28 -27 25 -5 -4 -9 1 -9 10 0 9 -9 19 -20 22 -11 3 -20 9 -20 14 0 12 -43 55 -52 52 -4 -2 -10 6 -13 17 -4 11 -12 20 -20 20 -7 0 -15 9 -18 21 -3 12 -10 18 -16 14 -6 -3 -11 -2 -11 4 0 13 -153 166 -162 163 -5 -1 -8 2 -8 7 0 12 -52 66 -61 64 -4 -2 -11 6 -14 17 -4 11 -13 20 -21 20 -8 0 -14 5 -14 10 0 13 -43 56 -52 53 -4 -2 -10 6 -13 17 -4 11 -12 20 -20 20 -7 0 -15 9 -18 21 -3 12 -10 18 -16 14 -6 -3 -11 -2 -11 3 0 13 -87 101 -93 95 -3 -2 -8 5 -12 16 -3 12 -12 21 -20 21 -7 0 -15 9 -18 21 -3 12 -10 18 -16 14 -6 -3 -11 -2 -11 3 0 13 -52 67 -62 65 -4 -2 -8 1 -8 6 0 12 -83 97 -92 94 -4 -2 -10 6 -13 17 -4 11 -12 20 -20 20 -7 0 -15 9 -18 21 -3 12 -10 18 -16 15 -5 -4 -12 3 -16 14 -3 11 -13 20 -21 20 -8 0 -14 7 -14 15 0 8 -4 15 -8 15 -5 0 -43 34 -85 76 l-77 75 0 -3465 0 -3466 5400 0 5400 0 0 5400 0 5400 -3470 0 c-1908 0 -3470 -2 -3470 -4z m4078 -4472 c-4 -3 54 -65 127 -139 116 -115 134 -138 139 -171 3 -22 3 -31 0 -21 -5 16 -31 17 -351 17 l-345 0 7 53 c3 28 20 81 38 117 27 54 41 70 86 97 30 18 73 37 95 42 45 10 213 14 204 5z m69 -11 c-4 -3 -10 -3 -14 0 -3 4 0 7 7 7 7 0 10 -3 7 -7z m19 -487 c-16 -137 -95 -220 -222 -233 -145 -15 -255 81 -289 255 l-7 32 263 0 262 0 -7 -54z m-399 -353 c-4 -3 -10 -3 -14 0 -3 4 0 7 7 7 7 0 10 -3 7 -7z m30 -10 c-4 -3 -10 -3 -14 0 -3 4 0 7 7 7 7 0 10 -3 7 -7z m50 -9 c-3 -3 -12 -4 -19 -1 -8 3 -5 6 6 6 11 1 17 -2 13 -5z m-2046 -679 c136 -47 212 -216 189 -423 -11 -106 -36 -168 -89 -222 -95 -98 -258 -107 -364 -19 -134 110 -151 447 -30 588 70 82 187 112 294 76z m1116 -13 c55 -29 106 -89 134 -158 20 -51 23 -77 23 -194 1 -159 -15 -224 -69 -287 -42 -49 -90 -68 -153 -59 -63 8 -116 42 -194 124 l-68 70 0 245 0 245 28 11 c90 36 230 38 299 3z m1161 20 c-2 -4 59 -69 135 -144 123 -123 137 -141 136 -170 -1 -18 -3 -25 -6 -15 -4 16 -29 17 -350 17 l-345 0 7 53 c3 28 20 81 38 117 27 54 41 70 86 97 30 18 73 37 95 42 50 11 207 14 204 3z m-3422 -47 c30 -21 82 -71 114 -112 l60 -74 0 -228 0 -228 -26 -12 c-45 -20 -157 -34 -215 -27 -174 22 -258 166 -246 416 7 121 27 193 70 245 63 77 150 84 243 20z m3491 38 c-4 -3 -10 -3 -14 0 -3 4 0 7 7 7 7 0 10 -3 7 -7z m-4897 -177 c0 -3 -5 -8 -12 -12 -7 -4 -8 -3 -4 4 7 12 16 16 16 8z m670 -747 c0 -11 -4 -19 -8 -17 -30 11 -902 595 -902 603 0 11 174 125 190 125 6 0 10 5 10 10 0 6 160 -150 355 -345 238 -238 355 -362 355 -376z m4246 437 c-16 -137 -95 -220 -222 -233 -145 -15 -255 81 -289 255 l-7 32 263 0 262 0 -7 -54z m-1572 -222 c3 -8 2 -12 -4 -9 -6 3 -10 10 -10 16 0 14 7 11 14 -7z m-1941 -150 c62 2 127 6 145 11 l32 8 -1 -204 c0 -122 -4 -196 -9 -184 -4 11 -92 103 -194 205 -102 102 -186 188 -186 192 0 5 23 -1 51 -11 41 -16 71 -19 162 -17z m-726 -341 c-4 -3 -7 0 -7 7 0 7 3 10 7 7 3 -4 3 -10 0 -14z"/>
</g>
<g id="layer103" fill="#ffffff" stroke="none">
<path d="M2600 6367 l0 -142 455 -300 c250 -165 455 -304 455 -310 0 -5 -204 -145 -453 -310 l-452 -300 -3 -142 c-1 -79 0 -143 3 -143 3 0 268 176 590 390 l585 390 0 113 0 114 -584 391 c-321 216 -587 392 -590 392 -3 0 -6 -64 -6 -143z"/>
<path d="M4414 6456 c-220 -51 -334 -210 -337 -471 -1 -173 36 -282 132 -387 59 -65 142 -111 237 -134 83 -20 260 -14 342 11 l52 16 0 78 0 79 -72 -26 c-59 -21 -92 -26 -173 -26 -90 -1 -106 2 -157 27 -64 31 -107 75 -142 145 -64 126 -55 325 19 432 80 115 269 151 455 86 l71 -24 -3 81 -3 82 -65 18 c-88 24 -276 31 -356 13z"/>
<path d="M5419 6452 c-77 -21 -157 -69 -199 -122 -158 -200 -143 -578 30 -751 166 -166 481 -173 644 -14 144 140 180 450 75 662 -94 193 -319 285 -550 225z m242 -137 c136 -47 212 -216 189 -423 -11 -106 -36 -168 -89 -222 -95 -98 -258 -107 -364 -19 -134 110 -151 447 -30 588 70 82 187 112 294 76z"/>
<path d="M6467 6456 c-66 -24 -117 -65 -156 -126 -60 -92 -76 -167 -76 -350 0 -144 2 -160 28 -230 49 -134 142 -229 267 -272 70 -24 217 -31 313 -15 l47 8 0 -200 0 -201 85 0 85 0 0 690 0 690 -74 0 c-87 0 -86 1 -86 -107 l0 -76 -40 50 c-48 61 -130 119 -195 138 -60 18 -148 19 -198 1z m249 -181 c30 -21 82 -71 114 -112 l60 -74 0 -228 0 -228 -26 -12 c-45 -20 -157 -34 -215 -27 -174 22 -258 166 -246 416 7 121 27 193 70 245 63 77 150 84 243 20z"/>
<path d="M7663 6455 c-116 -25 -221 -104 -272 -203 -53 -104 -71 -324 -38 -451 34 -126 115 -239 211 -296 142 -83 365 -68 494 34 96 77 142 196 142 368 l0 103 -346 0 -346 0 7 53 c3 28 20 81 38 117 27 54 41 70 86 97 92 55 193 65 376 38 55 -8 108 -18 118 -21 15 -5 17 3 17 65 l0 70 -37 10 c-118 31 -344 39 -450 16z m363 -629 c-16 -137 -95 -220 -222 -233 -145 -15 -255 81 -289 255 l-7 32 263 0 262 0 -7 -54z"/>
<path d="M3188 4938 l-588 -391 0 -112 0 -112 584 -392 c321 -215 587 -391 590 -391 3 0 6 64 6 143 l0 142 -455 300 c-250 165 -455 305 -454 310 0 6 204 145 454 309 l455 299 0 144 c0 78 -1 143 -2 143 -2 0 -267 -176 -590 -392z"/>
<path d="M6280 4620 l0 -690 75 0 75 0 0 44 c0 24 3 58 6 76 l7 32 56 -56 c32 -32 81 -67 116 -83 52 -24 72 -28 155 -28 87 0 100 3 149 30 129 71 190 218 191 455 0 263 -95 425 -295 499 -80 30 -218 38 -302 18 l-63 -14 0 203 0 204 -85 0 -85 0 0 -690z m497 142 c55 -29 106 -89 134 -158 20 -51 23 -77 23 -194 1 -159 -15 -224 -69 -287 -42 -49 -90 -68 -153 -59 -63 8 -116 42 -194 124 l-68 70 0 245 0 245 28 11 c90 36 230 38 299 3z"/>
<path d="M4267 4916 c-66 -24 -117 -65 -156 -126 -60 -92 -76 -167 -76 -350 0 -144 2 -160 28 -230 49 -134 142 -229 267 -272 70 -24 217 -31 313 -15 l47 8 0 -200 0 -201 85 0 85 0 0 690 0 690 -74 0 c-87 0 -86 1 -86 -107 l0 -76 -40 50 c-48 61 -130 119 -195 138 -60 18 -148 19 -198 1z m249 -181 c30 -21 82 -71 114 -112 l60 -74 0 -228 0 -228 -26 -12 c-45 -20 -157 -34 -215 -27 -174 22 -258 166 -246 416 7 121 27 193 70 245 63 77 150 84 243 20z"/>
<path d="M5419 4912 c-77 -21 -157 -69 -199 -122 -158 -200 -143 -578 30 -751 166 -166 481 -173 644 -14 144 140 180 450 75 662 -94 193 -319 285 -550 225z m242 -137 c136 -47 212 -216 189 -423 -11 -106 -36 -168 -89 -222 -95 -98 -258 -107 -364 -19 -134 110 -151 447 -30 588 70 82 187 112 294 76z"/>
<path d="M7663 4915 c-116 -25 -221 -104 -272 -203 -53 -104 -71 -324 -38 -451 33 -125 115 -239 212 -297 141 -82 365 -67 493 35 96 77 142 196 142 368 l0 103 -346 0 -346 0 7 53 c3 28 20 81 38 117 27 54 41 70 86 97 92 55 193 65 376 38 55 -8 108 -18 118 -21 15 -5 17 3 17 65 l0 70 -37 10 c-118 31 -344 39 -450 16z m363 -629 c-16 -137 -95 -220 -222 -233 -145 -15 -255 81 -289 255 l-7 32 263 0 262 0 -7 -54z"/>
</g>


</svg>