<!DOCTYPE svg PUBLIC "-//W3C//DTD SVG 20010904//EN" "http://www.w3.org/TR/2001/REC-SVG-20010904/DTD/svg10.dtd">
<svg version="1.0" xmlns="http://www.w3.org/2000/svg" width="561px" height="299px" viewBox="0 0 5610 2990" preserveAspectRatio="xMidYMid meet">
<g id="layer101" fill="#fff" stroke="none">
 <path d="M12 2830 l3 -142 444 -293 c244 -161 448 -298 454 -304 7 -7 -129 -102 -446 -312 l-457 -302 0 -139 c0 -76 2 -138 5 -138 3 0 266 174 585 387 l581 387 -3 109 -3 110 -565 379 c-311 209 -573 384 -583 389 -16 9 -17 2 -15 -131z"/>
 <path d="M1865 2931 c-161 -20 -270 -94 -334 -226 -38 -79 -51 -145 -51 -263 0 -275 140 -458 389 -509 64 -14 93 -14 186 -5 61 6 127 17 148 23 l38 13 -3 70 c-3 81 5 77 -108 46 -113 -32 -236 -25 -310 16 -106 60 -170 184 -170 328 1 320 207 437 568 321 21 -7 22 -5 22 63 0 82 -1 84 -102 106 -83 19 -198 26 -273 17z"/>
 <path d="M2866 2929 c-79 -12 -156 -48 -214 -103 -97 -91 -136 -203 -136 -391 0 -104 4 -130 27 -198 34 -96 60 -139 126 -200 163 -152 458 -154 619 -3 96 90 136 204 135 386 0 96 -5 128 -26 195 -59 181 -184 289 -362 315 -79 11 -87 11 -169 -1z m219 -153 c129 -59 196 -231 167 -427 -28 -195 -123 -289 -289 -289 -109 0 -180 43 -231 139 -88 165 -55 456 63 545 79 60 201 74 290 32z"/>
 <path d="M3905 2930 c-63 -11 -92 -26 -144 -75 -92 -86 -138 -243 -128 -440 12 -247 113 -401 306 -467 53 -18 87 -22 171 -22 58 0 122 6 143 12 l37 10 0 -204 0 -204 85 0 85 0 -2 688 -3 687 -72 3 -73 3 -1 -48 c0 -26 -4 -68 -7 -92 l-7 -43 -43 51 c-94 111 -223 164 -347 141z m176 -160 c52 -27 110 -80 165 -152 l44 -57 -2 -233 -3 -233 -40 -14 c-58 -20 -196 -26 -250 -11 -53 15 -128 78 -154 129 -28 55 -41 131 -41 240 0 125 15 199 54 263 52 85 140 112 227 68z"/>
 <path d="M5105 2929 c-237 -31 -365 -202 -365 -489 0 -165 42 -287 131 -385 191 -209 573 -161 683 85 34 75 46 142 46 251 l0 89 -346 0 -347 0 7 58 c13 120 89 214 198 247 66 19 206 19 323 0 50 -8 96 -15 103 -15 8 0 12 19 12 64 l0 63 -60 12 c-57 11 -267 32 -300 30 -8 -1 -46 -6 -85 -10z m325 -612 c0 -18 -7 -58 -16 -88 -20 -66 -88 -138 -150 -157 -55 -16 -147 -15 -188 2 -80 33 -146 127 -161 229 l-7 47 261 0 261 0 0 -33z"/>
 <path d="M578 1401 l-577 -386 -1 -110 0 -110 580 -388 c318 -213 584 -387 590 -387 17 0 13 255 -4 272 -8 8 -214 147 -460 309 -245 162 -444 298 -443 303 2 5 201 140 444 300 242 160 448 297 457 305 14 12 16 33 14 144 -2 77 -7 131 -13 132 -5 2 -270 -171 -587 -384z"/>
 <path d="M3680 1090 l0 -690 75 0 75 0 0 73 c0 41 2 76 5 79 3 3 34 -23 68 -57 81 -81 147 -108 267 -108 101 0 141 15 210 79 83 78 130 224 130 402 -1 293 -150 488 -400 521 -71 9 -178 3 -242 -14 l-28 -7 0 206 0 206 -80 0 -80 0 0 -690z m475 153 c66 -22 126 -84 155 -159 28 -74 39 -244 21 -345 -15 -84 -62 -165 -111 -191 -91 -48 -199 -10 -310 109 l-70 75 0 244 0 243 63 20 c78 25 187 27 252 4z"/>
 <path d="M1705 1390 c-63 -11 -92 -26 -144 -75 -92 -86 -138 -243 -128 -440 12 -247 113 -401 306 -467 53 -18 87 -22 171 -22 58 0 122 6 143 12 l37 10 0 -204 0 -204 85 0 85 0 -2 688 -3 687 -72 3 -73 3 -1 -48 c0 -26 -4 -68 -7 -92 l-7 -43 -43 51 c-94 111 -223 164 -347 141z m176 -160 c52 -27 110 -80 165 -152 l44 -57 -2 -233 -3 -233 -40 -14 c-58 -20 -196 -26 -250 -11 -53 15 -128 78 -154 129 -28 55 -41 131 -41 240 0 125 15 199 54 263 52 85 140 112 227 68z"/>
 <path d="M2866 1389 c-79 -12 -156 -48 -214 -103 -97 -91 -136 -203 -136 -391 0 -104 4 -130 27 -198 34 -96 60 -139 126 -200 163 -152 458 -154 619 -3 96 90 136 204 135 386 0 96 -5 128 -26 195 -59 181 -184 289 -362 315 -79 11 -87 11 -169 -1z m219 -153 c129 -59 196 -231 167 -427 -28 -195 -123 -289 -289 -289 -109 0 -180 43 -231 139 -88 165 -55 456 63 545 79 60 201 74 290 32z"/>
 <path d="M5105 1389 c-237 -31 -365 -202 -365 -489 0 -165 42 -287 131 -385 191 -209 573 -161 683 85 34 75 46 142 46 251 l0 89 -346 0 -347 0 7 58 c13 120 89 214 198 247 66 19 206 19 323 0 50 -8 96 -15 103 -15 8 0 12 19 12 64 l0 63 -60 12 c-57 11 -267 32 -300 30 -8 -1 -46 -6 -85 -10z m325 -612 c0 -18 -7 -58 -16 -88 -20 -66 -88 -138 -150 -157 -55 -16 -147 -15 -188 2 -80 33 -146 127 -161 229 l-7 47 261 0 261 0 0 -33z"/>
 </g>

</svg>